<?xml version="1.0" encoding="utf-8"?>
<!-- Generator: Adobe Illustrator 19.1.0, SVG Export Plug-In . SVG Version: 6.00 Build 0)  -->
<svg version="1.1" id="Layer_1" xmlns="http://www.w3.org/2000/svg" xmlns:xlink="http://www.w3.org/1999/xlink" x="0px" y="0px"
	 viewBox="-91 309 429 176" enable-background="new -91 309 429 176" xml:space="preserve">
<g>
	<g>
		<path fill="#3A3042" d="M70.7,323.9c-2.5,4.2-5.9,7.4-11.6,9.5C56,342.1,52,358.9,48.4,393c-7.6,71.6-34.5,87.9-58.3,87.9
			c-24.2,0-34.2-13.9-34.2-27.6c0-12.9,8.9-25.5,23.3-25.7l0.4,13.5c-6.5,0-10.7,6.5-10.7,13.6c0,8.6,6.1,18.1,21.6,18.1
			c16.3,0,35.1-10.2,42.9-79.9c3.1-28.8,8.3-46.6,13.6-57.5h-3.2c-21.8,0-44-9-74.7-9c-28.5,0-42.8,22.7-42.8,43.3
			c0,17.2,9.9,33.1,30.2,33.1c20.5,0,27.7-14.8,27.7-31.7c0-2.7-0.1-5.3-0.4-8.2l13.3-2.4c0.3,3,0.6,5.9,0.6,8.9
			c0,21.6-10.4,40.8-41.1,40.8c-30,0-44.6-20.5-44.6-42.4c0-25.2,19.6-52.5,57.5-52.5c32,0,57.5,12,76.1,12c2.5,0,4.6-0.1,6.5-0.3
			c5.2-7,10.1-9,13.3-9.8L70.7,323.9z"/>
		<path fill="#3A3042" d="M129.8,425.2c-5,0-9.2-1.6-12.5-4.2c-6,14.4-14.5,26.3-23.5,26.3c-7.9,0-11.1-7.3-11.7-18.2
			c-4,10.7-9,18.2-14.5,18.2c-7.7,0-10.4-7.7-10.4-19.1c0-13.6,3.9-32.8,7.3-50.1h12.6c-4.3,22.5-8.3,43-8.3,52.3
			c0,3.3,0.4,5.2,1.8,5.2c3.1,0,8.6-8.6,12.6-26.7c1.2-9.8,3.1-20.6,5.2-30.8h12.4c-3.9,20.3-7.3,39-7.3,49.4c0,5.2,0.9,8.3,3.1,8.3
			c3.7,0,9.6-10.4,14.2-23.1c-3-5.9-4.3-13.2-4.3-20.2c0-12.8,4.4-24.5,11.7-24.5c5.9,0,8.6,4.7,8.6,13c0,9.3-3,22.8-7.6,35.1
			c2.8,2.8,6.5,4.6,11.4,4.6h1.2c0.1-20,11.3-44.2,27.7-44.2c6.2,0,9.2,4.9,9.2,11.6c0,11.4-8.5,27.7-24.3,34.3
			c0.7,7,3.4,12.2,9.2,12.2c8.7,0,16-9.2,21.6-24.3c0.9,0,4.2,1.2,4.2,2.1c-7.4,19.4-14.8,34.8-29.4,34.8
			c-11.7,0-17.2-9.8-18.1-21.9L129.8,425.2L129.8,425.2z M116.5,375c-2.2,0-4.4,7.9-4.4,17.2c0,4,0.4,8.5,1.5,12.5
			c2.7-9.2,4.6-18.8,4.6-26.2C118.1,376.1,117.8,375,116.5,375z M144.2,416.6c10.7-7,15.9-21.1,15.9-27.4c0-2.1-0.6-3.4-1.6-3.4
			C151.3,385.9,144.8,402.8,144.2,416.6z"/>
		<path fill="#3A3042" d="M217.8,410.2c0.9,0,4.2,1.2,4.2,2.1c-7.4,19.4-14.8,34.8-29.4,34.8c-12.9,0-18.2-11.9-18.2-25.8
			c0-20.2,11.1-44.8,27.7-44.8c7.4,0,11.1,5.3,11.1,12.2c0,10.5-8.9,24.8-26.4,27.6c0,0.7,0,1.5,0,2.2c0,8.9,2.5,16,9.3,16
			C204.9,434.6,212.1,425.4,217.8,410.2z M187.2,410.8c11.1-5.5,16-15.7,16-21.2c0-2.2-0.9-3.7-2.4-3.7
			C194.8,385.9,189,398.5,187.2,410.8z"/>
		<path fill="#3A3042" d="M240.7,343.1c-0.4,8.9-1.5,17.2-3,25.7c24.9-3.6,49.4-21.2,73.8-21.2c7.9,0,15.6,1.8,23.4,6.4l-4.4,9.8
			c-7.6-4.9-15.3-6.8-23.1-6.8c-22.7,0-46.4,16-71.2,20c-1.8,8.2-3.9,16.5-6.5,25.8c-1.5,10.2-2.2,17.9-2.2,23.4c0,6.2,1,9.5,3,9.5
			c4,0,9.8-13.9,14.2-25.4c0.9,0,4.2,1.3,4.2,2.1c-8.7,23.7-13.3,34.1-23,34.1c-6.5,0-9.2-8-9.2-20.6c0-10.1,1.8-22.8,4.3-36.8
			l2.1-11.3c-7.9-0.3-15.9-2.2-24-6.8l5.2-8.6c7,4.2,13.6,6.2,20.5,6.8c1.3-7.4,3-15.6,5.5-26.1H240.7z"/>
	</g>
	<path fill="#62C6EC" d="M-20.8,358.6c1.9-1.3,3.6-3.1,5.2-5.4c-1.9,0.8-4,1.4-6,1.7c2.2-1.3,3.7-3.2,4.5-5.8c-2,1.2-4.2,2-6.5,2.6
		c-2-2.2-4.6-3.3-7.6-3.3c-2.9,0-5.4,1-7.4,3.1c-2,2-3,4.5-3,7.4c0,0.9,0.1,1.7,0.3,2.4c-4.3-0.2-8.3-1.3-12.1-3.2
		c-3.8-1.9-6.9-4.5-9.6-7.8c-0.9,1.7-1.4,3.5-1.4,5.3s0.4,3.5,1.2,5s1.9,2.8,3.4,3.7c-1.7,0-3.2-0.4-4.7-1.3v0.1
		c0,2.5,0.8,4.7,2.4,6.6s3.6,3.1,6,3.7c-0.7,0.2-1.7,0.3-2.7,0.3c-0.6,0-1.3-0.1-2-0.2c0.6,2.1,1.9,3.8,3.6,5.1c1.8,1.3,3.8,2,6.1,2
		c-4.1,3.2-8.4,4.8-13,4.8c-0.4,0-1.2-0.1-2.4-0.2c4.7,3.1,10.1,4.6,16,4.6c3.7,0,7.2-0.6,10.5-1.8c3.3-1.2,6-2.7,8.4-4.7
		c2.3-2,4.3-4.2,6-6.8c1.7-2.6,2.9-5.2,3.7-8s1.2-5.6,1.2-8.4L-20.8,358.6L-20.8,358.6z"/>
	<path fill="none" stroke="#FFFFFF" stroke-width="6" stroke-miterlimit="10" d="M211.5,313.1H23c-5.4,0-9.8,4.4-9.8,9.8v7.9
		c-1.6,4.4-10.9,20.8-25.2,19.7c0,0,16,1.1,26.5-3.4c1.7,2.9,4.9,4.9,8.5,4.9h188.6c5.4,0,9.8-4.4,9.8-9.8V323
		C221.3,317.6,216.9,313.1,211.5,313.1z"/>
	<path fill="#62C6EC" d="M211.5,313.1H23c-5.4,0-9.8,4.4-9.8,9.8v7.9c-1.6,4.4-10.9,20.8-25.2,19.7c0,0,16,1.1,26.5-3.4
		c1.7,2.9,4.9,4.9,8.5,4.9h188.6c5.4,0,9.8-4.4,9.8-9.8V323C221.3,317.6,216.9,313.1,211.5,313.1z"/>
	<g>
		<path fill="#FFFFFF" d="M34.4,323.6c5.5,0,9.8,4.4,9.8,9.8s-4.4,9.8-9.8,9.8c-5.5,0-9.8-4.3-9.8-9.8S28.9,323.6,34.4,323.6z
			 M34.4,338.9c3,0,5.5-2.5,5.5-5.4c0-3-2.5-5.5-5.5-5.5s-5.4,2.5-5.4,5.5C29,336.5,31.4,338.9,34.4,338.9z"/>
		<path fill="#FFFFFF" d="M47.5,324.1c0-0.3,0.2-0.5,0.5-0.5h0.7l10.9,10.5l0,0v-9.7c0-0.3,0.2-0.5,0.5-0.5h3.3
			c0.3,0,0.5,0.2,0.5,0.5v18.3c0,0.3-0.2,0.5-0.5,0.5H63c-0.1,0-0.3-0.1-0.4-0.1l-10.8-10.9l0,0v10.2c0,0.3-0.2,0.5-0.5,0.5h-3.2
			c-0.3,0-0.5-0.2-0.5-0.5L47.5,324.1z"/>
		<path fill="#FFFFFF" d="M77,323.6c2.7,0,4.7,0.8,6.6,2.5c0.2,0.2,0.2,0.5,0,0.8l-2.1,2.2c-0.2,0.2-0.5,0.2-0.7,0
			c-1-0.9-2.3-1.4-3.7-1.4c-3.1,0-5.3,2.6-5.3,5.6s2.3,5.5,5.4,5.5c1.3,0,2.7-0.5,3.7-1.3c0.2-0.2,0.5-0.2,0.7,0l2.1,2.3
			c0.2,0.2,0.2,0.5,0,0.7c-1.9,1.8-4.2,2.6-6.6,2.6c-5.5,0-9.8-4.3-9.8-9.8S71.5,323.6,77,323.6z"/>
		<path fill="#FFFFFF" d="M86.9,324.5c0-0.3,0.2-0.5,0.5-0.5h11.3c0.3,0,0.5,0.2,0.5,0.5v3c0,0.3-0.2,0.5-0.5,0.5h-7.5v3.4h6.2
			c0.3,0,0.5,0.2,0.5,0.5v3c0,0.3-0.2,0.5-0.5,0.5h-6.2v3.7h7.5c0.3,0,0.5,0.2,0.5,0.5v3c0,0.3-0.2,0.5-0.5,0.5H87.4
			c-0.3,0-0.5-0.2-0.5-0.5V324.5z"/>
		<path fill="#FFFFFF" d="M108.6,324.5c0-0.3,0.2-0.5,0.5-0.5h3.4c0.3,0,0.5,0.2,0.5,0.5v11c0,1.9,1.4,3.4,3.4,3.4s3.4-1.5,3.4-3.4
			v-11c0-0.3,0.2-0.5,0.5-0.5h3.4c0.3,0,0.5,0.2,0.5,0.5v11.3c0,4.1-3.5,7.6-7.8,7.6s-7.7-3.4-7.7-7.6L108.6,324.5L108.6,324.5z"/>
		<path fill="#FFFFFF" d="M128.5,324.5c0-0.3,0.2-0.5,0.5-0.5h6.6c3.4,0,6.1,2.7,6.1,6c0,3.4-2.8,6.1-6.1,6.1h-2.8v6.4
			c0,0.3-0.2,0.5-0.5,0.5h-3.2c-0.3,0-0.5-0.2-0.5-0.5L128.5,324.5L128.5,324.5z M135.4,332.1c1.2,0,2.2-0.9,2.2-2.2
			c0-1.1-1-2-2.2-2h-2.6v4.2H135.4z"/>
		<path fill="#FFFFFF" d="M153,323.6c5.5,0,9.8,4.4,9.8,9.8s-4.4,9.8-9.8,9.8s-9.8-4.3-9.8-9.8S147.5,323.6,153,323.6z M153,338.9
			c3,0,5.5-2.5,5.5-5.4c0-3-2.5-5.5-5.5-5.5s-5.4,2.5-5.4,5.5C147.5,336.5,150,338.9,153,338.9z"/>
		<path fill="#FFFFFF" d="M166,324.1c0-0.3,0.2-0.5,0.5-0.5h0.7l10.9,10.5l0,0v-9.7c0-0.3,0.2-0.5,0.5-0.5h3.3
			c0.3,0,0.5,0.2,0.5,0.5v18.3c0,0.3-0.2,0.5-0.5,0.5h-0.4c-0.1,0-0.3-0.1-0.4-0.1l-10.8-10.8l0,0v10.2c0,0.3-0.2,0.5-0.5,0.5h-3.2
			c-0.3,0-0.5-0.2-0.5-0.5L166,324.1z"/>
		<path fill="#FFFFFF" d="M190.7,342.2l8.5-18.3c0.1-0.2,0.3-0.3,0.5-0.3h0.3c0.2,0,0.4,0.1,0.5,0.3l8.5,18.3
			c0.2,0.4-0.1,0.7-0.5,0.7h-3c-0.5,0-0.7-0.2-1-0.7l-1-2.2h-7.4l-1,2.2c-0.1,0.3-0.4,0.7-1,0.7h-3
			C190.8,343,190.5,342.6,190.7,342.2z M201.9,336.5l-2.1-4.5l0,0l-2,4.5H201.9z"/>
	</g>
</g>
</svg>
